<svg xmlns="http://www.w3.org/2000/svg" viewBox="0 0 240 100" width="100%" height="100%">
  <g fill="none" stroke="#2D241E" stroke-width="3" stroke-linecap="round" stroke-linejoin="round">
    <!-- b -->
    <path d="M 28 20 C 28 20, 26 68, 27 68 C 29 68, 42 66, 42 53 C 42 40, 28 41, 27 56" />
    <!-- u -->
    <path d="M 54 44 C 54 58, 57 60, 61 60 C 65 60, 68 54, 68 44 C 68 52, 68 60, 73 60" />
    <!-- t1 -->
    <path d="M 86 26 L 86 60 C 86 60, 86 63, 91 59" />
    <path d="M 80 38 L 91 37" />
    <!-- t2 -->
    <path d="M 104 26 L 104 60 C 104 60, 104 63, 109 59" />
    <path d="M 98 38 L 109 37" />
    <!-- e -->
    <path d="M 119 52 C 125 52, 131 48, 129 42 C 127 36, 119 42, 121 52 C 123 60, 131 60, 135 56" />
    <!-- r -->
    <path d="M 148 44 L 147 60 M 148 49 C 151 43, 156 42, 159 44" />
    <!-- y -->
    <path d="M 172 44 C 172 54, 175 60, 180 60 C 185 60, 187 52, 187 44 C 187 56, 187 66, 183 72 C 179 78, 169 78, 165 72" />
  </g>
</svg>
